<svg width="65" height="64" viewBox="0 0 65 64" fill="none" xmlns="http://www.w3.org/2000/svg">
<g filter="url(#filter0_d_1069:8990)">
<circle cx="32.5" cy="26" r="24" fill="url(#paint0_linear_1069:8990)"/>
</g>
<path fill-rule="evenodd" clip-rule="evenodd" d="M38.0714 16.7929C37.2294 15.7403 36.8083 15.214 36.2223 14.9322L36.221 14.9316C35.6349 14.65 34.9609 14.65 33.6129 14.65H31.3871C30.0391 14.65 29.3651 14.65 28.779 14.9315L28.7777 14.9322C28.1917 15.214 27.7706 15.7403 26.9286 16.7929C23.4554 16.7929 21.7189 16.7929 20.4172 17.523C19.5009 18.037 18.7441 18.7938 18.2301 19.7101C17.5 21.0117 17.5 22.7483 17.5 26.2215V27.0786C17.5 31.3669 17.5 33.5111 18.5933 35.0135C18.9442 35.4958 19.3685 35.9201 19.8508 36.2711C21.3532 37.3643 23.4974 37.3643 27.7857 37.3643H37.2143C41.5026 37.3643 43.6468 37.3643 45.1492 36.2711C45.6315 35.9201 46.0558 35.4958 46.4067 35.0135C47.5 33.5111 47.5 31.3669 47.5 27.0786V26.2215C47.5 22.7483 47.5 21.0117 46.7699 19.7101C46.2559 18.7938 45.4991 18.037 44.5828 17.523C43.2811 16.7929 41.5446 16.7929 38.0714 16.7929ZM46.4067 35.0135L44.7896 33.8367C44.5615 34.1501 44.2858 34.4258 43.9724 34.6539L45.1492 36.2711L43.9724 34.6539C43.6192 34.9109 43.1003 35.1211 42.0108 35.2393C40.8838 35.3616 39.4031 35.3643 37.2143 35.3643H27.7857C25.5969 35.3643 24.1162 35.3616 22.9892 35.2393C21.8997 35.1211 21.3808 34.9109 21.0276 34.6539L19.8508 36.2711L21.0276 34.6539C20.7142 34.4258 20.4385 34.1501 20.2104 33.8367C19.9534 33.4835 19.7432 32.9646 19.625 31.8751C19.5028 30.7481 19.5 29.2674 19.5 27.0786V26.2215C19.5 24.449 19.5018 23.2502 19.5835 22.3278C19.6628 21.4319 19.8053 20.9902 19.9744 20.6885C20.3084 20.0931 20.8002 19.6013 21.3957 19.2673L20.4172 17.523L21.3957 19.2673C21.6973 19.0981 22.1391 18.9557 23.0349 18.8764C23.9573 18.7947 25.1561 18.7929 26.9286 18.7929H27.8898L28.4903 18.0423C28.9322 17.4899 29.1872 17.1738 29.3984 16.9518C29.5802 16.7606 29.6418 16.7357 29.6444 16.7346L29.6445 16.7346L29.6449 16.7344L29.645 16.7343L29.6457 16.734L29.6457 16.7339C29.6534 16.7299 29.7179 16.6994 29.9683 16.6779C30.2735 16.6517 30.6797 16.65 31.3871 16.65H33.6129C34.3203 16.65 34.7265 16.6517 35.0317 16.6779C35.2872 16.6998 35.3491 16.7311 35.3547 16.7341L35.3547 16.7342L35.355 16.7343L35.3551 16.7344L35.3555 16.7346L35.3556 16.7346L35.356 16.7348L35.356 16.7348C35.3621 16.7373 35.4253 16.7665 35.6016 16.9518C35.8128 17.1738 36.0678 17.4899 36.5097 18.0423L37.1102 18.7929H38.0714C39.8439 18.7929 41.0427 18.7947 41.9651 18.8764C42.8609 18.9557 43.3027 19.0981 43.6043 19.2673C44.1998 19.6013 44.6916 20.0931 45.0256 20.6885C45.1947 20.9902 45.3372 21.4319 45.4165 22.3278C45.4982 23.2502 45.5 24.449 45.5 26.2215V27.0786C45.5 29.2674 45.4972 30.7481 45.375 31.8751C45.2568 32.9646 45.0466 33.4835 44.7896 33.8367L46.4067 35.0135ZM32.5002 31.6876C35.2192 31.6876 37.4233 29.4834 37.4233 26.7645C37.4233 24.0456 35.2192 21.8414 32.5002 21.8414C29.7813 21.8414 27.5771 24.0456 27.5771 26.7645C27.5771 29.4834 29.7813 31.6876 32.5002 31.6876ZM32.5002 33.6876C36.3237 33.6876 39.4233 30.588 39.4233 26.7645C39.4233 22.941 36.3237 19.8414 32.5002 19.8414C28.6767 19.8414 25.5771 22.941 25.5771 26.7645C25.5771 30.588 28.6767 33.6876 32.5002 33.6876ZM42 23.65C42.8284 23.65 43.5 22.9785 43.5 22.15C43.5 21.3216 42.8284 20.65 42 20.65C41.1716 20.65 40.5 21.3216 40.5 22.15C40.5 22.9785 41.1716 23.65 42 23.65Z" fill="white"/>
<defs>
<filter id="filter0_d_1069:8990" x="0.5" y="0" width="64" height="64" filterUnits="userSpaceOnUse" color-interpolation-filters="sRGB">
<feFlood flood-opacity="0" result="BackgroundImageFix"/>
<feColorMatrix in="SourceAlpha" type="matrix" values="0 0 0 0 0 0 0 0 0 0 0 0 0 0 0 0 0 0 127 0" result="hardAlpha"/>
<feOffset dy="6"/>
<feGaussianBlur stdDeviation="4"/>
<feColorMatrix type="matrix" values="0 0 0 0 0.67451 0 0 0 0 0.372549 0 0 0 0 0.768627 0 0 0 0.3 0"/>
<feBlend mode="normal" in2="BackgroundImageFix" result="effect1_dropShadow_1069:8990"/>
<feBlend mode="normal" in="SourceGraphic" in2="effect1_dropShadow_1069:8990" result="shape"/>
</filter>
<linearGradient id="paint0_linear_1069:8990" x1="23.2402" y1="2" x2="46.25" y2="45.4412" gradientUnits="userSpaceOnUse">
<stop stop-color="#DC87B5"/>
<stop offset="1" stop-color="#9B50C9"/>
</linearGradient>
</defs>
</svg>
