<svg width="65" height="64" viewBox="0 0 65 64" fill="none" xmlns="http://www.w3.org/2000/svg">
  <g filter="url(#filter0_d_1069_9383)">
    <circle cx="32.5" cy="26" r="24" fill="url(#paint0_linear_1069_9383)"/>
  </g>
  <path fill-rule="evenodd" clip-rule="evenodd" d="M31.7085 13.6069C32.1742 13.2427 32.8283 13.2427 33.294 13.6069L41.9766 20.3966C42.4585 20.7735 42.192 21.547 41.5802 21.547H38.1393V25.5256C38.1393 26.2364 37.5631 26.8126 36.8523 26.8126H28.1481C27.4374 26.8126 26.8612 26.2364 26.8612 25.5256V21.547H23.4223C22.8105 21.547 22.544 20.7735 23.0259 20.3966L31.7085 13.6069ZM28.1481 28.133C27.4374 28.133 26.8612 28.7092 26.8612 29.42V30.1384C26.8612 30.8492 27.4374 31.4254 28.1481 31.4254H36.8523C37.5631 31.4254 38.1393 30.8492 38.1393 30.1384V29.42C38.1393 28.7092 37.5631 28.133 36.8523 28.133H28.1481ZM26.8612 34.0277C26.8612 33.3169 27.4374 32.7407 28.1481 32.7407H36.8523C37.5631 32.7407 38.1393 33.3169 38.1393 34.0277V34.0876C38.1393 34.7984 37.5631 35.3746 36.8523 35.3746H28.1481C27.4374 35.3746 26.8612 34.7984 26.8612 34.0876V34.0277ZM27.8489 36.6922C27.3034 36.6922 26.8612 37.1344 26.8612 37.6799C26.8612 38.2254 27.3034 38.6676 27.8489 38.6676H37.1516C37.6971 38.6676 38.1393 38.2254 38.1393 37.6799C38.1393 37.1344 37.6971 36.6922 37.1516 36.6922H27.8489Z" fill="white"/>
  <defs>
    <filter id="filter0_d_1069_9383" x="0.5" y="0" width="64" height="64" filterUnits="userSpaceOnUse" color-interpolation-filters="sRGB">
      <feFlood flood-opacity="0" result="BackgroundImageFix"/>
      <feColorMatrix in="SourceAlpha" type="matrix" values="0 0 0 0 0 0 0 0 0 0 0 0 0 0 0 0 0 0 127 0" result="hardAlpha"/>
      <feOffset dy="6"/>
      <feGaussianBlur stdDeviation="4"/>
      <feColorMatrix type="matrix" values="0 0 0 0 0.841667 0 0 0 0 0.530728 0 0 0 0 0.417326 0 0 0 0.4 0"/>
      <feBlend mode="normal" in2="BackgroundImageFix" result="effect1_dropShadow_1069_9383"/>
      <feBlend mode="normal" in="SourceGraphic" in2="effect1_dropShadow_1069_9383" result="shape"/>
    </filter>
    <linearGradient id="paint0_linear_1069_9383" x1="23.2402" y1="2" x2="46.25" y2="45.4412" gradientUnits="userSpaceOnUse">
      <stop stop-color="#FAAC80"/>
      <stop offset="1" stop-color="#E84E68"/>
    </linearGradient>
  </defs>
</svg>
