<svg width="182" height="24" viewBox="0 0 182 24" fill="none" xmlns="http://www.w3.org/2000/svg">
<path fill-rule="evenodd" clip-rule="evenodd" d="M143.967 20.2509C145.764 20.2509 147.226 18.7884 147.226 16.9906V11.4729C147.226 9.67515 145.764 8.2133 143.967 8.2133H130.449C128.651 8.2133 127.188 9.67515 127.188 11.4729V14.2328V16.9906C127.188 18.7884 128.651 20.2509 130.449 20.2509H143.967ZM130.449 4.79934H143.967C147.646 4.79934 150.64 7.7927 150.64 11.4729V16.9906C150.64 20.6715 147.646 23.6649 143.967 23.6649H130.449C126.768 23.6649 123.774 20.6715 123.774 16.9906V14.2328V11.4729V0H127.188V5.65556C128.153 5.11274 129.264 4.79934 130.449 4.79934ZM44.8726 16.9906C44.8726 18.7884 43.4101 20.2509 41.613 20.2509H28.0951C26.2973 20.2509 24.8354 18.7884 24.8354 16.9906V11.4729C24.8354 9.67515 26.2973 8.2133 28.0951 8.2133H41.613C43.4101 8.2133 44.8726 9.67515 44.8726 11.4729V16.9906ZM41.613 4.79934H28.0951C24.4155 4.79934 21.4215 7.7927 21.4215 11.4729V16.9906C21.4215 20.6715 24.4155 23.6649 28.0951 23.6649H41.613C45.2925 23.6649 48.2866 20.6715 48.2866 16.9906V11.4729C48.2866 7.7927 45.2925 4.79934 41.613 4.79934ZM115.565 16.9906C115.565 18.7884 114.103 20.2509 112.306 20.2509H98.7863C96.9892 20.2509 95.5267 18.7884 95.5267 16.9906V11.4729C95.5267 9.67515 96.9892 8.2133 98.7863 8.2133H112.306C114.103 8.2133 115.565 9.67515 115.565 11.4729V16.9906ZM112.306 4.79934H98.7863C95.1068 4.79934 92.1127 7.7927 92.1127 11.4729V16.9906C92.1127 20.6715 95.1068 23.6649 98.7863 23.6649H112.306C115.985 23.6649 118.979 20.6715 118.979 16.9906V11.4729C118.979 7.7927 115.985 4.79934 112.306 4.79934ZM80.5898 4.79997H59.6206C55.941 4.79997 52.9476 7.79401 52.9476 11.4736V24.0007H56.3616V11.4736C56.3616 9.67647 57.8235 8.21393 59.6206 8.21393H68.3985V24.0007H71.8125V8.21393H80.5898C82.3869 8.21393 83.8487 9.67647 83.8487 11.4736V24.0007H87.2627V11.4736C87.2627 7.79401 84.2693 4.79997 80.5898 4.79997ZM167.524 16.9906C167.524 18.7877 168.986 20.2509 170.783 20.2509H181.689V23.6649H170.783C167.398 23.6649 164.599 21.1276 164.172 17.8557H164.11V4.37259H167.524V16.9906ZM3.41396 16.9906V4.37328H0V17.8564H0.0628168C0.489561 21.1283 3.28764 23.6649 6.6736 23.6649H17.5819V20.2509H6.6736C4.87649 20.2509 3.41396 18.7884 3.41396 16.9906ZM159.061 24.0007H155.647V4.3739H159.061V24.0007Z" fill="black"/>
</svg>
