<svg width="161" height="160" viewBox="0 0 161 160" fill="none" xmlns="http://www.w3.org/2000/svg">
<path fill-rule="evenodd" clip-rule="evenodd" d="M11.1667 80C11.1667 41.7083 42.2083 10.6667 80.5 10.6667C118.792 10.6667 149.833 41.7083 149.833 80C149.833 118.292 118.792 149.333 80.5 149.333C42.2083 149.333 11.1667 118.292 11.1667 80ZM80.5 0C36.3172 0 0.5 35.8172 0.5 80C0.5 124.183 36.3172 160 80.5 160C124.683 160 160.5 124.183 160.5 80C160.5 35.8172 124.683 0 80.5 0ZM120.633 58.5703C122.495 56.2875 122.153 52.928 119.87 51.0666C117.588 49.2052 114.228 49.5468 112.367 51.8297L73.7795 99.1534L53.9523 78.445C51.9153 76.3174 48.5392 76.244 46.4116 78.281C44.284 80.3181 44.2107 83.6941 46.2477 85.8217L70.2477 110.888L74.4205 115.247L78.2334 110.57L120.633 58.5703Z" fill="white"/>
<path fill-rule="evenodd" clip-rule="evenodd" d="M11.1667 80C11.1667 41.7083 42.2083 10.6667 80.5 10.6667C118.792 10.6667 149.833 41.7083 149.833 80C149.833 118.292 118.792 149.333 80.5 149.333C42.2083 149.333 11.1667 118.292 11.1667 80ZM80.5 0C36.3172 0 0.5 35.8172 0.5 80C0.5 124.183 36.3172 160 80.5 160C124.683 160 160.5 124.183 160.5 80C160.5 35.8172 124.683 0 80.5 0ZM120.633 58.5703C122.495 56.2875 122.153 52.928 119.87 51.0666C117.588 49.2052 114.228 49.5468 112.367 51.8297L73.7795 99.1534L53.9523 78.445C51.9153 76.3174 48.5392 76.244 46.4116 78.281C44.284 80.3181 44.2107 83.6941 46.2477 85.8217L70.2477 110.888L74.4205 115.247L78.2334 110.57L120.633 58.5703Z" fill="url(#paint0_linear_1069:9557)"/>
<defs>
<linearGradient id="paint0_linear_1069:9557" x1="49.6339" y1="-1.3949e-06" x2="126.333" y2="144.804" gradientUnits="userSpaceOnUse">
<stop stop-color="#87DC9F"/>
<stop offset="1" stop-color="#36B049"/>
</linearGradient>
</defs>
</svg>
